<svg id="图层_1" data-name="图层 1" xmlns="http://www.w3.org/2000/svg" xmlns:xlink="http://www.w3.org/1999/xlink" viewBox="0 0 516.24 66.82"><defs><style>.cls-1,.cls-12,.cls-2,.cls-42,.cls-6,.cls-8{fill:none;}.cls-10,.cls-11,.cls-12,.cls-13,.cls-14,.cls-16,.cls-17,.cls-18,.cls-19,.cls-2,.cls-4,.cls-5,.cls-7,.cls-9{stroke:#6a005f;}.cls-10,.cls-11,.cls-12,.cls-13,.cls-14,.cls-16,.cls-17,.cls-18,.cls-19,.cls-2,.cls-4,.cls-5,.cls-6,.cls-7,.cls-8,.cls-9{stroke-linecap:round;stroke-linejoin:bevel;}.cls-11,.cls-2,.cls-4,.cls-5,.cls-7,.cls-9{stroke-width:0.83px;}.cls-3{fill:#6a005f;}.cls-4{fill:url(#未命名的渐变_232);}.cls-10,.cls-5{fill:#ccc;}.cls-6,.cls-8{stroke:#93278f;}.cls-6{stroke-width:0.78px;}.cls-7{fill:url(#未命名的渐变_235);}.cls-8{stroke-width:0.66px;}.cls-9{fill:url(#未命名的渐变_208);}.cls-10{stroke-width:0.66px;}.cls-11{fill:#f2f2f2;}.cls-12,.cls-14,.cls-17,.cls-19{stroke-width:0.55px;}.cls-13,.cls-17,.cls-18{fill:#e6e6e6;}.cls-13{stroke-width:0.42px;}.cls-14,.cls-15,.cls-16{fill:#b3b3b3;}.cls-16,.cls-18{stroke-width:0.41px;}.cls-19{fill:url(#未命名的渐变_231);}.cls-20{clip-path:url(#clip-path);}.cls-21{fill:url(#未命名的渐变_214);}.cls-22{clip-path:url(#clip-path-2);}.cls-23{fill:url(#未命名的渐变_226);}.cls-24{clip-path:url(#clip-path-3);}.cls-25{fill:url(#未命名的渐变_214-2);}.cls-26{clip-path:url(#clip-path-4);}.cls-27{clip-path:url(#clip-path-5);}.cls-28{clip-path:url(#clip-path-6);}.cls-29{clip-path:url(#clip-path-7);}.cls-30{clip-path:url(#clip-path-8);}.cls-31{clip-path:url(#clip-path-9);}.cls-32{clip-path:url(#clip-path-10);}.cls-33{clip-path:url(#clip-path-11);}.cls-34{clip-path:url(#clip-path-12);}.cls-35{clip-path:url(#clip-path-13);}.cls-36{clip-path:url(#clip-path-14);}.cls-37{clip-path:url(#clip-path-15);}.cls-38{clip-path:url(#clip-path-16);}.cls-39{clip-path:url(#clip-path-17);}.cls-40{clip-path:url(#clip-path-18);}.cls-41{fill:url(#未命名的渐变_214-4);}.cls-42{stroke:#000;stroke-miterlimit:10;stroke-width:0.64px;}</style><linearGradient id="未命名的渐变_232" x1="25.1" y1="32.32" x2="14.27" y2="0.87" gradientUnits="userSpaceOnUse"><stop offset="0" stop-color="#b3b3b3"/><stop offset="0.57" stop-color="#b3b3b3"/><stop offset="1" stop-color="#9d9d9d"/></linearGradient><linearGradient id="未命名的渐变_235" x1="41.99" y1="40.04" x2="26.81" y2="-7.71" gradientUnits="userSpaceOnUse"><stop offset="0" stop-color="#fafafa" stop-opacity="0.8"/><stop offset="0.43" stop-color="#dadada"/><stop offset="1" stop-color="#dadada"/></linearGradient><linearGradient id="未命名的渐变_208" x1="47.92" y1="73.01" x2="41.99" y2="51.35" gradientUnits="userSpaceOnUse"><stop offset="0" stop-color="#ee6cf9"/><stop offset="1" stop-color="#6a005f"/></linearGradient><linearGradient id="未命名的渐变_231" x1="95.83" y1="72.02" x2="87.79" y2="64.34" gradientUnits="userSpaceOnUse"><stop offset="0" stop-color="#b0b0b0"/><stop offset="1" stop-color="#fff"/></linearGradient><clipPath id="clip-path" transform="translate(-39.52 -28.59)"><path class="cls-1" d="M151.86,54.9V68.62a12.92,12.92,0,0,1-3.57,9.56,12.77,12.77,0,0,1-9.49,3.58q-5.91,0-9-3.47t-3.13-10V46H137V68.26c0,2.14.76,3.2,2.27,3.2s2.2-1.06,2.2-3.2V54.9Z"/></clipPath><linearGradient id="未命名的渐变_214" x1="97.31" y1="54.8" x2="97.31" y2="12.96" xlink:href="#未命名的渐变_208"/><clipPath id="clip-path-2" transform="translate(-39.52 -28.59)"><path class="cls-1" d="M180.3,81h-9.56V66.61c0-1.47-.6-2.2-1.81-2.2s-1.79.73-1.79,2.2V81h-9.56V66.79a11.64,11.64,0,0,1,3.3-8.4,11.48,11.48,0,0,1,16.84.55q2.58,3.09,2.58,8.62Z"/></clipPath><linearGradient id="未命名的渐变_226" x1="315.45" y1="52.7" x2="315.45" y2="15.55" gradientUnits="userSpaceOnUse"><stop offset="0" stop-color="#dadada"/><stop offset="0.24" stop-color="#cecece"/><stop offset="1" stop-color="#9d9d9d"/></linearGradient><clipPath id="clip-path-3" transform="translate(-39.52 -28.59)"><path class="cls-1" d="M198.76,45.24a11.39,11.39,0,0,0-8.4,3.56,11.71,11.71,0,0,0-3.51,8.51,16.38,16.38,0,0,0,2.32,8.17,9.8,9.8,0,0,1,1.46,3.35,2.46,2.46,0,0,1-.91,2,3.32,3.32,0,0,1-2.26.78,5,5,0,0,1-2.63-.95V75.2a8.67,8.67,0,0,0,6.81,0,5.26,5.26,0,0,0,3-3.08c.77-2.13.34-4.88-1.25-7.95-2.79-5.4-1.86-8.45-1.67-9a7.13,7.13,0,0,1,3.49-4.7c2.69-1.43,6-1,7.74-.55V46A12.78,12.78,0,0,0,198.76,45.24Zm2.48,10.28a5.77,5.77,0,0,1,1.74.38V51.45c-1.39-.36-4.63-1-7.06.34a5.7,5.7,0,0,0-2.77,3.82l0,.11s-1,2.66,1.61,7.76c1.78,3.44,2.24,6.59,1.31,9.12a6.61,6.61,0,0,1-3.83,3.92,10.23,10.23,0,0,1-3.91.82,10.91,10.91,0,0,1-3.46-.62v4a11.67,11.67,0,0,0,5,1.15,12.19,12.19,0,0,0,8.83-3.53,11.57,11.57,0,0,0,3.62-8.61,14.48,14.48,0,0,0-2.15-7.21l-.79-1.38a5.65,5.65,0,0,1-.92-2.66,2.93,2.93,0,0,1,.84-2.1A2.71,2.71,0,0,1,201.24,55.52Z"/></clipPath><linearGradient id="未命名的渐变_214-2" x1="155.43" y1="54.8" x2="155.43" y2="12.96" xlink:href="#未命名的渐变_208"/><clipPath id="clip-path-4" transform="translate(-39.52 -28.59)"><path class="cls-1" d="M216,46.11v9.76h4.29V66H216c0,2,.32,3.43,1,4.19s1.81,1.15,3.51,1.15v10c-.49,0-.86,0-1.1,0a13.06,13.06,0,0,1-6.12-1.5,12.42,12.42,0,0,1-4.61-4.09,15.52,15.52,0,0,1-2.2-8.75V46.11Z"/></clipPath><clipPath id="clip-path-5" transform="translate(-39.52 -28.59)"><path class="cls-1" d="M238.3,71.67v9.89c-.78.14-.6,0-1.25,0a13.09,13.09,0,0,1-9.58-3.78,13.51,13.51,0,0,1,0-18.9A12.87,12.87,0,0,1,236.92,55q6.2,0,9.76,3.62t3.56,9.88V81h-9.56V69.19a5,5,0,0,0-1-3.22,3.26,3.26,0,0,0-2.65-1.2,3.76,3.76,0,0,0-2.71,6.31,3.37,3.37,0,0,0,2.53,1A1.71,1.71,0,0,0,238.3,71.67Z"/></clipPath><clipPath id="clip-path-6" transform="translate(-39.52 -28.59)"><path class="cls-1" d="M264.81,46.11V67q0,5.08,3.66,5.09A3.61,3.61,0,0,0,271.11,71a3.44,3.44,0,0,0,1.09-2.57,3.64,3.64,0,0,0-1-2.62,3.35,3.35,0,0,0-2.51-1.06c-.7,0-.56.15-1.46.77V55a8.09,8.09,0,0,1,1.61,0,12.57,12.57,0,0,1,9.25,3.89,12.83,12.83,0,0,1,3.84,9.36A12.69,12.69,0,0,1,278,77.68a13.67,13.67,0,0,1-15.2,2.58,12.5,12.5,0,0,1-4.48-3.37,14.4,14.4,0,0,1-3.07-9.54V46.11Z"/></clipPath><clipPath id="clip-path-7" transform="translate(-39.52 -28.59)"><path class="cls-1" d="M295.66,46.11V81H286.1V46.11Z"/></clipPath><clipPath id="clip-path-8" transform="translate(-39.52 -28.59)"><path class="cls-1" d="M326.31,69.8H312V65.28h4.85a3,3,0,0,0-3.19-2.84A3.47,3.47,0,0,0,310.7,64a6.41,6.41,0,0,0-1.13,3.9,6.78,6.78,0,0,0,1.09,4,3.33,3.33,0,0,0,2.85,1.53A3.83,3.83,0,0,0,316.27,72l5.44,6.54a13.34,13.34,0,0,1-8.46,3,13,13,0,0,1-9.53-3.81,12.68,12.68,0,0,1-3.86-9.43,12.81,12.81,0,0,1,3.9-9.46A13.06,13.06,0,0,1,313.33,55,12.88,12.88,0,0,1,326.42,68C326.42,68.39,326.38,69,326.31,69.8Z"/></clipPath><clipPath id="clip-path-9" transform="translate(-39.52 -28.59)"><path class="cls-1" d="M386.82,71.62v9.89a5.9,5.9,0,0,1-1.56,0,13.11,13.11,0,0,1-9.59-3.78,13.52,13.52,0,0,1,0-18.9A12.85,12.85,0,0,1,385.13,55q6.19,0,9.75,3.62t3.57,9.88V81h-9.56V69.19a4.92,4.92,0,0,0-1-3.22,3.22,3.22,0,0,0-2.64-1.2,3.76,3.76,0,0,0-2.71,6.31,3.35,3.35,0,0,0,2.53,1A2.47,2.47,0,0,0,386.82,71.62Z"/></clipPath><clipPath id="clip-path-10" transform="translate(-39.52 -28.59)"><path class="cls-1" d="M420,56.6V66a4,4,0,0,0-2.78.75,4.93,4.93,0,0,0-1,3q-.67,7.38-5.73,10.43a15.18,15.18,0,0,1-7.62,1.58L401.59,81v-9.4H402a4.59,4.59,0,0,0,3.28-1,5,5,0,0,0,1.14-3.36,24,24,0,0,1,.73-5.5,8,8,0,0,1,2.13-3.14,10.75,10.75,0,0,1,7.8-2.74Z"/></clipPath><clipPath id="clip-path-11" transform="translate(-39.52 -28.59)"><path class="cls-1" d="M448.17,69.8h-14.5l0-1.94.1-2.58h4.86a3,3,0,0,0-3.2-2.84A3.47,3.47,0,0,0,432.55,64a6.41,6.41,0,0,0-1.13,3.9,6.85,6.85,0,0,0,1.09,4,3.35,3.35,0,0,0,2.85,1.53A3.81,3.81,0,0,0,438.12,72l5.45,6.54a13.34,13.34,0,0,1-8.47,3,13,13,0,0,1-9.53-3.81,13.44,13.44,0,0,1,0-18.89A13.09,13.09,0,0,1,435.18,55,12.88,12.88,0,0,1,448.27,68C448.27,68.39,448.24,69,448.17,69.8Z"/></clipPath><clipPath id="clip-path-12" transform="translate(-39.52 -28.59)"><path class="cls-1" d="M461.69,46.11V81h-9.56V46.11Z"/></clipPath><clipPath id="clip-path-13" transform="translate(-39.52 -28.59)"><path class="cls-1" d="M476.85,55.52V81h-9.56V55.52Zm-4.76-11.38a4.67,4.67,0,0,1,3.36,1.37,4.52,4.52,0,0,1,.08,6.5,5.25,5.25,0,0,1-6.87,0,4.3,4.3,0,0,1-1.35-3.27,4.36,4.36,0,0,1,1.42-3.23A4.7,4.7,0,0,1,472.09,44.14Z"/></clipPath><clipPath id="clip-path-14" transform="translate(-39.52 -28.59)"><path class="cls-1" d="M505.2,81h-9.56V66.61c0-1.47-.61-2.2-1.82-2.2s-1.79.73-1.79,2.2V81h-9.56V66.79a11.64,11.64,0,0,1,3.3-8.4,11.48,11.48,0,0,1,16.84.55q2.59,3.09,2.59,8.62Z"/></clipPath><clipPath id="clip-path-15" transform="translate(-39.52 -28.59)"><path class="cls-1" d="M535.82,69.8H521.33l0-2.14.1-2.38h4.86a3,3,0,0,0-3.19-2.84A3.48,3.48,0,0,0,520.2,64a6.41,6.41,0,0,0-1.12,3.9,6.85,6.85,0,0,0,1.08,4A3.36,3.36,0,0,0,523,73.41,3.8,3.8,0,0,0,525.77,72l5.45,6.54a13.34,13.34,0,0,1-8.46,3,13.05,13.05,0,0,1-9.54-3.81,13.44,13.44,0,0,1,0-18.89A13.09,13.09,0,0,1,522.83,55,12.88,12.88,0,0,1,535.92,68C535.92,68.39,535.89,69,535.82,69.8Z"/></clipPath><clipPath id="clip-path-16" transform="translate(-39.52 -28.59)"><path class="cls-1" d="M555.76,56.6V66a4,4,0,0,0-2.78.75,4.93,4.93,0,0,0-1,3q-.67,7.38-5.73,10.43a15.18,15.18,0,0,1-7.62,1.58L537.35,81v-9.4h.44a4.59,4.59,0,0,0,3.28-1,5,5,0,0,0,1.14-3.36,24,24,0,0,1,.73-5.5,8,8,0,0,1,2.13-3.14,10.75,10.75,0,0,1,7.8-2.74Z"/></clipPath><clipPath id="clip-path-17" transform="translate(-39.52 -28.59)"><circle class="cls-1" cx="146.38" cy="47.09" r="4.96"/></clipPath><clipPath id="clip-path-18" transform="translate(-39.52 -28.59)"><path class="cls-1" d="M364.17,62.29A8.85,8.85,0,0,0,368,55q0-8.86-11.27-8.87H346.58V81h11.48c.63,0,1.22,0,1.77,0a15.74,15.74,0,0,0,3.19-.48A9.53,9.53,0,0,0,369.77,71,8.71,8.71,0,0,0,364.17,62.29Zm-4.38,13.1a5,5,0,0,1-2.47.64,5.28,5.28,0,0,1-1.21-.14,5,5,0,0,1-2.38-1.34,5.08,5.08,0,0,1,0-7.19,4.9,4.9,0,0,1,1.64-1.09,4.8,4.8,0,0,1,1.21-.33v-8a2.87,2.87,0,0,1-2.11-2.43,2.06,2.06,0,0,1,0-.35,2.77,2.77,0,0,1,.51-1.63,2.86,2.86,0,0,1,2.36-1.24,2.79,2.79,0,0,1,2,.8,1.58,1.58,0,0,1,.22.23,2.85,2.85,0,0,1,.37,3.11,2.88,2.88,0,0,1-1.72,1.47l-.12,0v8a5.14,5.14,0,0,1,2.77,1.35,5.07,5.07,0,0,1-1,8.11ZM358.2,67l-.16.71a3.35,3.35,0,0,1,2.44,2.22,3.06,3.06,0,0,1,.17,1.1,3.21,3.21,0,0,1-.53,1.73,3.34,3.34,0,1,1-5.29-4,.71.71,0,0,0,.32.07A.84.84,0,0,0,356,68a.84.84,0,0,0-1.68,0,1,1,0,0,0,0,.24,4.06,4.06,0,0,0,0,5.6A4,4,0,0,0,357.24,75h.08A4,4,0,0,0,360,74a4,4,0,0,0,.68-5.41A4,4,0,0,0,358.2,67Z"/></clipPath><linearGradient id="未命名的渐变_214-4" x1="314.19" y1="54.8" x2="314.19" y2="12.96" xlink:href="#未命名的渐变_208"/></defs><title>usb_logo</title><polyline class="cls-2" points="10.35 5.13 0.42 18.37 0.42 64.34 45.73 64.34"/><polyline class="cls-2" points="9.52 12.3 4.46 18.74 4.46 58.64"/><polyline class="cls-2" points="8.69 19.39 8.69 61.4 30.2 61.4"/><circle class="cls-3" cx="30.2" cy="61.4" r="1.68"/><circle class="cls-3" cx="9.52" cy="12.3" r="1.68"/><polygon class="cls-4" points="29.65 30.76 20.71 32.76 9.72 2.44 18.68 0.49 29.65 30.76"/><polygon class="cls-5" points="38.61 46.56 38.59 46.56 38.57 46.56 20.83 50.53 15 34.04 20.71 32.76 29.65 30.76 29.67 30.75 32.78 30.05 33.99 33.48 38.61 46.56"/><polygon class="cls-6" points="38.59 46.56 20.83 50.55 20.83 50.53 38.57 46.56 38.59 46.56"/><polygon class="cls-7" points="32.76 29.86 34.05 33.51 33.99 33.48 32.78 30.05 29.67 30.75 18.65 0.36 43.47 14.75 53.28 41.81 32.76 29.86"/><polygon class="cls-8" points="66 62.52 65.89 62.46 42.05 48.57 65.94 62.36 65.95 62.36 65.97 62.44 65.97 62.44 66 62.52"/><polygon class="cls-3" points="35.49 21.68 27.84 17.28 25.8 11.57 33.45 15.98 35.49 21.68"/><polygon class="cls-3" points="45.98 27.5 39.52 23.82 37.47 18.11 43.94 21.8 45.98 27.5"/><polygon class="cls-9" points="66.05 62.42 65.97 62.44 65.97 62.44 65.89 62.46 48.22 66.41 20.74 50.55 20.83 50.53 38.57 46.56 38.59 46.56 41.93 48.5 42.05 48.57 65.94 62.36 65.95 62.36 66.05 62.42"/><path class="cls-10" d="M105.66,87.82a4.41,4.41,0,0,1-1.31,0l-2.71-7.69-1.4-4a5.44,5.44,0,0,1,3.06-2.53,4.74,4.74,0,0,1,.85-.17c3.15-.33,6,2.63,6.45,6.6S108.81,87.49,105.66,87.82Z" transform="translate(-39.52 -28.59)"/><polygon class="cls-11" points="65.94 62.36 42.05 48.57 41.93 48.5 38.66 46.59 34.05 33.51 32.76 29.86 53.28 41.81 60.11 45.79 60.72 47.53 62.12 51.49 64.82 59.18 65.94 62.36"/><path class="cls-12" d="M85.67,66.64l-.21-.15-.18-.12a.75.75,0,0,1,.2.1h0a0,0,0,0,0,0,0A.93.93,0,0,1,85.67,66.64Z" transform="translate(-39.52 -28.59)"/><path class="cls-13" d="M84.41,68.24a1.16,1.16,0,0,1-1.62.43h0A1.26,1.26,0,0,1,82.44,67a1.19,1.19,0,0,1,1.41-.54l.19.12.22.14h0A1.27,1.27,0,0,1,84.41,68.24Z" transform="translate(-39.52 -28.59)"/><path class="cls-14" d="M103.52,77.27c-2.22,2.86-5.19,4.29-6.67,3.25v0l-9-7c2.42,1.75,6.12.9,8.34-2S98.33,64.94,96,63l8.71,6.78h0l.21.14C106.43,71.08,105.78,74.36,103.52,77.27Z" transform="translate(-39.52 -28.59)"/><path class="cls-14" d="M96.19,71.58c-2.22,2.86-5.92,3.71-8.34,2l-.14-.1-.08-.07,8.18-10.52h0l.08.07L96,63C98.33,64.94,98.41,68.73,96.19,71.58Z" transform="translate(-39.52 -28.59)"/><path class="cls-15" d="M86.09,64.41a1.47,1.47,0,0,0,1-.54,1.39,1.39,0,0,0,.31-1l2.67,2-1.28,1.57Z" transform="translate(-39.52 -28.59)"/><path class="cls-3" d="M87.56,63.24l.32.24,1.84,1.38-1,1.24-2.14-1.6a1.83,1.83,0,0,0,.65-.49,1.66,1.66,0,0,0,.34-.77m-.8-1.12a1.15,1.15,0,0,1,.13,1.62,1.27,1.27,0,0,1-1,.47,1.26,1.26,0,0,1-.74-.24l1,.71,2.67,2,1.55-1.9-2.2-1.64-1.37-1Z" transform="translate(-39.52 -28.59)"/><path class="cls-12" d="M86.2,64h0Z" transform="translate(-39.52 -28.59)"/><path class="cls-15" d="M84.33,66.3l.08.21-.16-.24a1.45,1.45,0,0,0,.93-.62,1.49,1.49,0,0,0,.23-1.07L88,66.41,86.85,68.1Z" transform="translate(-39.52 -28.59)"/><path class="cls-3" d="M85.63,65l.05,0,2,1.44-.9,1.35L85,66.52l-.27-.19a1.69,1.69,0,0,0,.63-.56,1.79,1.79,0,0,0,.28-.79m-.88-1.13A1.24,1.24,0,0,1,85,65.54a1.22,1.22,0,0,1-1,.54,1.14,1.14,0,0,1-.61-.18l.42.29.18.13.21.15h0l.54.38,2.16,1.54v0l1.35-2-2.35-1.68-1.17-.83Z" transform="translate(-39.52 -28.59)"/><path class="cls-15" d="M83.61,69a1.47,1.47,0,0,0,.9-.71,1.65,1.65,0,0,0,.19-1.16L87.41,69l-1.08,1.87Z" transform="translate(-39.52 -28.59)"/><path class="cls-3" d="M85,67.6l1.85,1.24.33.21-.87,1.5-1.53-1-.67-.44a1.78,1.78,0,0,0,.64-.64A1.86,1.86,0,0,0,85,67.6m-1-1.18h0v0l.21.14h0a1.41,1.41,0,0,1,.15,1.63,1.24,1.24,0,0,1-1,.64,1,1,0,0,1-.59-.18l1.79,1.2,1.93,1.29,1.29-2.25L87,68.48l-2.29-1.54L84,66.43Z" transform="translate(-39.52 -28.59)"/><path class="cls-16" d="M88.88,58.53s1-1.15,2.57.78S94.8,63.5,94.8,63.5L91.49,64Z" transform="translate(-39.52 -28.59)"/><circle class="cls-17" cx="48.15" cy="31.57" r="0.78"/><path class="cls-18" d="M85.77,57.32a1.29,1.29,0,0,1-2.06,1,1.2,1.2,0,0,1-.51-1,1.28,1.28,0,0,1,1.26-1.28,1.35,1.35,0,0,1,1,.41A1.29,1.29,0,0,1,85.77,57.32Z" transform="translate(-39.52 -28.59)"/><circle class="cls-18" cx="50.34" cy="30.51" r="1.06"/><path class="cls-16" d="M88.44,58.82,86.32,61l-2.61-2.67a1.27,1.27,0,0,0,1.72-1.85Z" transform="translate(-39.52 -28.59)"/><rect class="cls-16" x="88.48" y="59.72" width="3.22" height="6.11" transform="translate(-58.34 48.2) rotate(-42.2)"/><path class="cls-19" d="M96.19,71.58c-2.22,2.86-5.92,3.71-8.34,2l-.14-.1-.08-.07c-2.34-1.9-2.43-5.72-.2-8.6s6-3.71,8.38-1.92l.09.07L96,63C98.33,64.94,98.41,68.73,96.19,71.58Z" transform="translate(-39.52 -28.59)"/><path class="cls-13" d="M85.05,65.48a1.17,1.17,0,0,1-1.63.37h0a1.28,1.28,0,0,1-.25-1.71,1.17,1.17,0,0,1,1.64-.36h0a0,0,0,0,1,0,0A1.25,1.25,0,0,1,85.05,65.48Z" transform="translate(-39.52 -28.59)"/><path class="cls-18" d="M87.12,63.81a1.15,1.15,0,0,1-1.63.26h0a1.24,1.24,0,0,1-.15-1.7A1.16,1.16,0,0,1,87,62.1l.07.06A1.25,1.25,0,0,1,87.12,63.81Z" transform="translate(-39.52 -28.59)"/><g class="cls-20"><rect class="cls-21" x="81.08" y="12.96" width="32.45" height="41.84"/></g><g class="cls-22"><rect class="cls-23" x="114.67" y="15.55" width="401.57" height="37.15"/></g><g class="cls-24"><rect class="cls-25" x="145.31" y="12.96" width="20.25" height="41.84"/></g><g class="cls-26"><rect class="cls-23" x="114.67" y="15.55" width="401.57" height="37.15"/></g><g class="cls-27"><rect class="cls-23" x="114.67" y="15.55" width="401.57" height="37.15"/></g><g class="cls-28"><rect class="cls-23" x="114.67" y="15.55" width="401.57" height="37.15"/></g><g class="cls-29"><rect class="cls-23" x="114.67" y="15.55" width="401.57" height="37.15"/></g><g class="cls-30"><rect class="cls-23" x="114.67" y="15.55" width="401.57" height="37.15"/></g><g class="cls-31"><rect class="cls-23" x="114.67" y="15.55" width="401.57" height="37.15"/></g><g class="cls-32"><rect class="cls-23" x="114.67" y="15.55" width="401.57" height="37.15"/></g><g class="cls-33"><rect class="cls-23" x="114.67" y="15.55" width="401.57" height="37.15"/></g><g class="cls-34"><rect class="cls-23" x="114.67" y="15.55" width="401.57" height="37.15"/></g><g class="cls-35"><rect class="cls-23" x="114.67" y="15.55" width="401.57" height="37.15"/></g><g class="cls-36"><rect class="cls-23" x="114.67" y="15.55" width="401.57" height="37.15"/></g><g class="cls-37"><rect class="cls-23" x="114.67" y="15.55" width="401.57" height="37.15"/></g><g class="cls-38"><rect class="cls-23" x="114.67" y="15.55" width="401.57" height="37.15"/></g><g class="cls-39"><rect class="cls-21" x="81.08" y="12.96" width="32.45" height="41.84"/><path d="M152,55V68.73a12.92,12.92,0,0,1-3.57,9.56,12.77,12.77,0,0,1-9.49,3.58q-5.91,0-9-3.48t-3.13-10V46.11h10.38V68.37c0,2.13.76,3.2,2.27,3.2s2.2-1.07,2.2-3.2V55Z" transform="translate(-39.52 -28.59)"/></g><line class="cls-1" x1="145.3" y1="48.13" x2="145.3" y2="46.61"/><path d="M360.24,53.27A2.5,2.5,0,0,0,360,53l.2,0Z" transform="translate(-39.52 -28.59)"/><path class="cls-1" d="M358.93,67l-.16.71a3.32,3.32,0,0,1,2.43,2.22,2.86,2.86,0,0,1,.18,1.1,3.3,3.3,0,0,1-.53,1.73A3.35,3.35,0,0,1,358,74.3a3.3,3.3,0,0,1-2.34-1,3.33,3.33,0,0,1-.94-2.38,3.28,3.28,0,0,1,.86-2.18.71.71,0,0,0,.32.07.84.84,0,0,0,.83-.84.83.83,0,0,0-.83-.83A.84.84,0,0,0,355,68a1,1,0,0,0,0,.24A4.06,4.06,0,0,0,358,75H358a4.07,4.07,0,0,0,.89-8Z" transform="translate(-39.52 -28.59)"/><path class="cls-1" d="M358.76,65.93v-8l.13,0a2.88,2.88,0,0,0,1.72-1.47,2.85,2.85,0,0,0-.37-3.11l0-.25-.2,0a2.79,2.79,0,0,0-2-.8,2.84,2.84,0,0,0-2.35,1.24,2.78,2.78,0,0,0-.52,1.63c0,.12,0,.23,0,.35a2.89,2.89,0,0,0,2.12,2.43v8a4.49,4.49,0,0,1,.73-.06A5.55,5.55,0,0,1,358.76,65.93Z" transform="translate(-39.52 -28.59)"/><g class="cls-40"><rect class="cls-41" x="297.96" y="12.96" width="32.45" height="41.84"/></g><path class="cls-42" d="M357.32,66.91" transform="translate(-39.52 -28.59)"/></svg>